<?xml version="1.0" encoding="UTF-8" standalone="no"?>
<svg
   viewBox="0 0 24 24"
   width="24"
   height="24"
   version="1.1"
   id="svg8"
   sodipodi:docname="lingtex-icon.svg"
   inkscape:version="1.4.2 (ebf0e940, 2025-05-08)"
   xmlns:inkscape="http://www.inkscape.org/namespaces/inkscape"
   xmlns:sodipodi="http://sodipodi.sourceforge.net/DTD/sodipodi-0.dtd"
   xmlns="http://www.w3.org/2000/svg"
   xmlns:svg="http://www.w3.org/2000/svg">
  <sodipodi:namedview
     id="namedview8"
     pagecolor="#ffffff"
     bordercolor="#000000"
     borderopacity="0.25"
     inkscape:showpageshadow="2"
     inkscape:pageopacity="0.0"
     inkscape:pagecheckerboard="0"
     inkscape:deskcolor="#d1d1d1"
     inkscape:zoom="0.98249818"
     inkscape:cx="125.19107"
     inkscape:cy="164.8858"
     inkscape:window-width="1152"
     inkscape:window-height="697"
     inkscape:window-x="205"
     inkscape:window-y="31"
     inkscape:window-maximized="0"
     inkscape:current-layer="svg8" />
  <!-- Blue background -->
  <rect
     width="300"
     height="300"
     fill="none"
     id="rect1" />
  <!-- Define the Charis SIL font -->
  <defs
     id="defs1">
    <style
       id="style1">
      @import url('https://fonts.cdnfonts.com/css/charis-sil');
      .ipa-style {
        font-family: 'Charis SIL', 'Doulos SIL', 'Gentium', serif;
        font-weight: normal;
      }
    </style>
  </defs>
   <g transform="scale(0.08)">
   <!-- Main text group (centered vertically and horizontally) -->
   <path
     d="M 36.195129,215.40978 H 20.281897 V 93.597557 h 15.913232 v 5.367101 H 25.706862 V 210.11062 h 10.488267 z"
     id="text1"
   style="font-weight:normal;font-size:60px;font-family:'Charis SIL', 'Doulos SIL', Gentium, serif;fill:currentColor;stroke-width:1.69195"
     aria-label="[" />
   <path
     d="m 59.051325,107.59893 v 76.98899 q 0,5.44942 0.760382,7.22364 0.823749,1.77421 2.471252,2.72471 1.6475,0.88711 6.146441,0.88711 v 2.28116 H 39.978341 v -2.28116 q 3.992019,0 5.449423,-0.82375 1.457406,-0.82376 2.281154,-2.72469 0.823749,-1.90099 0.823749,-7.28702 v -52.72003 q 0,-9.82163 -0.443557,-12.03944 -0.443556,-2.28114 -1.457402,-3.10489 -0.950482,-0.82376 -2.471251,-0.82376 -1.647501,0 -4.182116,1.01384 l -1.077212,-2.21778 17.298752,-7.09693 z"
     id="text2"
   style="font-weight:normal;font-size:60px;font-family:'Charis SIL', 'Doulos SIL', Gentium, serif;fill:currentColor;stroke-width:2.16288"
     aria-label="l" />
   <path
     d="m 80.59117,106.64002 q 1.959258,0 3.312081,1.39946 1.399468,1.35285 1.399468,3.31208 0,1.95928 -1.399468,3.35874 -1.352823,1.39949 -3.312081,1.39949 -1.959259,0 -3.358728,-1.39949 -1.399471,-1.39946 -1.399471,-3.35874 0,-1.95923 1.35282,-3.31208 1.39947,-1.39946 3.405379,-1.39946 z m 3.871869,22.34489 v 34.33366 q 0,4.01179 0.559785,5.36466 0.606438,1.30615 1.726016,1.95924 1.166224,0.65307 4.1984,0.65307 v 1.67937 h -20.7588 v -1.67937 q 3.125485,0 4.19841,-0.6064 1.072927,-0.60644 1.679365,-2.00591 0.653087,-1.39948 0.653087,-5.36466 v -16.4671 q 0,-6.95071 -0.41984,-9.00324 -0.326543,-1.49278 -1.026279,-2.05258 -0.699737,-0.60644 -1.912613,-0.60644 -1.306168,0 -3.17213,0.69973 l -0.653085,-1.67934 12.875127,-5.22469 z"
     id="text3"
   style="font-weight:normal;font-size:42px;font-family:'Charis SIL', 'Doulos SIL', Gentium, serif;fill:currentColor;stroke-width:2.2747"
     aria-label="i" />
   <path
     d="m 136.43829,181.25448 q 0,11.71378 -4.94584,17.90909 -4.94582,6.19531 -13.79626,6.19531 -4.47729,0 -6.92415,-1.61389 -2.39483,-1.61391 -2.39483,-3.64432 0,-1.66595 1.19741,-3.07161 1.24946,-1.3536 3.0716,-1.3536 2.39484,0 5.93502,3.07164 2.81131,2.49894 4.47727,2.49894 2.60307,0 3.69636,-2.60306 1.09328,-2.60308 1.09328,-11.40145 v -35.1935 q 0,-6.55972 -1.71804,-9.47516 -1.66595,-2.91546 -5.62262,-2.91546 -6.35147,0 -12.39059,6.76801 v 25.14564 q 0,5.25818 1.14534,7.08034 1.14535,1.77009 5.51851,1.77009 h 1.09329 v 1.92625 H 92.290237 v -1.92625 h 1.041209 q 3.592252,0 4.893782,-1.82215 1.30154,-1.82217 1.30154,-7.02828 V 153.8702 q 0,-9.21489 -0.62473,-11.45352 -0.62474,-2.23864 -3.17576,-2.23864 -1.45771,0 -3.436041,0.7809 l -0.780938,-1.87418 14.368961,-5.83087 h 2.23864 v 10.09988 q 8.38188,-10.09988 16.03489,-10.09988 12.2865,0 12.2865,17.96116 z"
     id="text4"
   style="font-weight:normal;font-size:60px;font-family:'Charis SIL', 'Doulos SIL', Gentium, serif;fill:currentColor;stroke-width:1.77703"
     aria-label="ŋ" />
   <path
     d="m 156.66956,119.08432 v 18.34621 h 13.04349 v 4.26656 h -13.04349 v 36.20482 q 0,5.42462 1.52377,7.31408 1.58473,1.8895 4.02275,1.8895 2.01139,0 3.90085,-1.21902 1.8895,-1.27998 2.92564,-3.718 h 2.37709 q -2.13328,5.97316 -6.03413,9.02072 -3.90085,2.98658 -8.04551,2.98658 -2.80373,0 -5.48556,-1.52377 -2.68187,-1.58472 -3.96183,-4.44941 -1.27997,-2.92564 -1.27997,-8.95976 v -37.54574 h -8.83786 v -2.01138 q 3.35229,-1.34091 6.8265,-4.51037 3.53514,-3.23039 6.27793,-7.61885 1.40186,-2.31612 3.90087,-8.47217 z"
     id="text5"
   style="font-weight:normal;font-size:60px;font-family:'Charis SIL', 'Doulos SIL', Gentium, serif;fill:currentColor;stroke-width:2.08045"
     aria-label="t" />
   <path
     d="m 208.67788,162.7293 q -4.30411,4.11896 -7.86773,5.87764 -4.21154,2.12891 -9.48754,2.12891 -6.24793,0 -10.92225,-3.19337 -5.27604,-3.60988 -5.27604,-9.67265 0,-7.40492 11.33879,-10.876 -9.11731,-3.23966 -9.11731,-9.81151 0,-5.78508 5.83136,-8.88591 4.72065,-2.49915 11.01482,-2.49915 4.76693,0 8.70079,1.38843 5.5074,1.99007 5.5074,5.92394 0,1.57353 -1.20328,2.77685 -1.2033,1.15701 -2.77684,1.15701 -2.59174,0 -4.25783,-3.6099 -2.31405,-4.99832 -6.94212,-4.99832 -3.93386,0 -6.20161,2.63799 -2.17519,2.4529 -2.17519,6.47932 0,8.46937 8.74704,8.46937 0.83307,0 2.12891,-0.18506 1.9901,-0.27769 3.23966,-0.27769 2.82312,0 2.82312,1.61984 0,1.80496 -2.8694,1.80496 -1.15703,0 -3.05453,-0.324 -1.66612,-0.27767 -2.36031,-0.27767 -9.25617,0 -9.25617,9.44129 0,4.07269 2.40663,6.80325 2.45287,2.73058 6.47927,2.73058 6.80328,0 14.34706,-5.8314 z"
     id="text6"
   style="font-weight:normal;font-size:42px;font-family:'Charis SIL', 'Doulos SIL', Gentium, serif;fill:currentColor;stroke-width:2.25674"
     aria-label="ɛ" />
   <path
     d="m 205.97687,133.02386 h 27.08147 v 2.32486 q -2.57621,0 -3.64438,0.87966 -1.00534,0.8797 -1.00534,2.32487 0,1.50801 2.19918,4.64974 0.69118,1.00534 2.07354,3.14167 l 4.08419,6.53475 4.71257,-6.53475 q 4.52403,-6.22055 4.52403,-7.85424 0,-1.31951 -1.06816,-2.19921 -1.06819,-0.94249 -3.45587,-0.94249 v -2.32486 h 19.47855 v 2.32486 q -3.07888,0.18853 -5.34088,1.69651 -3.07888,2.13637 -8.41976,9.29943 l -7.85427,10.4933 14.32614,20.60957 q 5.27806,7.60291 7.5401,9.17376 2.26203,1.50801 5.84358,1.69653 v 2.26201 h -27.14432 v -2.26201 q 2.82755,0 4.39839,-1.25669 1.19384,-0.87966 1.19384,-2.32485 0,-1.44519 -4.02137,-7.28875 l -8.41976,-12.31548 -9.23661,12.31548 q -4.27272,5.71791 -4.27272,6.78608 0,1.50801 1.38234,2.7647 1.44519,1.19384 4.27272,1.31951 v 2.26201 h -18.78739 v -2.26201 q 2.26203,-0.31417 3.95855,-1.57086 2.38771,-1.82219 8.04277,-9.29943 l 12.06413,-16.02268 -10.93312,-15.83418 q -4.64972,-6.78608 -7.22592,-8.48259 -2.51336,-1.75936 -6.34622,-1.75936 z"
     id="text7"
   style="font-weight:normal;font-size:60px;font-family:'Charis SIL', 'Doulos SIL', Gentium, serif;fill:currentColor;stroke-width:2.14474"
     aria-label="x" />
   <path
     d="m 263.81462,93.597557 h 15.91323 V 215.47772 h -15.91323 v -5.3671 h 10.48827 V 98.964658 h -10.48827 z"
     id="text8"
   style="font-weight:normal;font-size:60px;font-family:'Charis SIL', 'Doulos SIL', Gentium, serif;fill:currentColor;stroke-width:1.69195"
     aria-label="]" />
   </g>
</svg>
